
<svg width="392" height="320" viewBox="0 0 392 320" fill="none" xmlns="http://www.w3.org/2000/svg">
<path d="M201.562 263.578C206.949 262.656 212.483 261.515 217.931 260.391C218.418 260.291 218.904 260.191 219.388 260.091C231.232 257.653 242.54 255.406 251.479 255.5C257.238 255.561 262.824 255.679 268.211 255.792C277.559 255.99 286.307 256.175 294.317 256.025C306.959 255.788 318.074 254.718 327.258 251.449C336.522 248.15 343.83 242.606 348.766 233.519C353.66 224.509 356.13 212.185 356.13 195.47C356.13 108.883 283.692 38.7986 194.47 38.7986C105.247 38.7986 32.8086 108.883 32.8086 195.47C32.8086 212.998 35.3694 226.329 40.3412 236.415C45.3407 246.557 52.7208 253.298 62.094 257.706C71.4072 262.086 82.6342 264.137 95.3412 265.051C108.039 265.965 122.385 265.75 137.983 265.501L244.935 268.999L245.065 265.001L201.562 263.578Z" fill="#181D21" stroke="white" stroke-width="4"/>
<path d="M344 243.11C315.157 286.589 280.949 277.983 243.5 272C227.958 269.517 209.788 261.386 194.5 266C181.307 260.529 162.174 269.856 147 272C110.441 277.165 75.2443 284.632 45 243.11C45 205.172 113.931 199.671 137.192 173.301C156.104 151.861 157.427 127.695 169.583 113.466C175.035 107.085 180.675 101 194.5 101C207.92 101 214.3 107.098 219.417 113.466C231 127.882 230.351 152.469 249.317 173.301C273.515 199.881 344 204.323 344 243.11Z" fill="#D9D9D9"/>
<path d="M4 265H388.187" stroke="white" stroke-width="7" stroke-linecap="round"/>
<path d="M245.053 265.369C246.576 265.384 248.089 265.396 249.593 265.406C269.688 265.538 288.179 265.157 303.877 262.171C319.59 259.181 332.744 253.538 341.94 242.957C351.147 232.364 356.13 217.12 356.13 195.47C356.13 108.883 283.692 38.7986 194.47 38.7986C105.247 38.7986 32.8086 108.883 32.8086 195.47C32.8086 212.998 35.3694 226.329 40.3412 236.415C45.3407 246.557 52.7208 253.298 62.094 257.706C71.4072 262.086 82.6342 264.137 95.3412 265.051C108.039 265.965 122.385 265.75 137.983 265.501L244.935 268.999L245.053 265.369Z" stroke="white" stroke-width="4"/>
<path d="M289.271 312.227C306.17 312.227 321.553 307.378 332.764 299.437C343.97 291.5 351.144 280.349 351.144 267.817C351.144 255.284 343.97 244.134 332.764 236.196C321.553 228.255 306.17 223.407 289.271 223.407C272.373 223.407 256.989 228.255 245.779 236.196C234.573 244.134 227.398 255.284 227.398 267.817C227.398 280.349 234.573 291.5 245.779 299.437C256.989 307.378 272.373 312.227 289.271 312.227Z" fill="#D9D9D9" stroke="white" stroke-width="4"/>
<path d="M255.43 317.216C270.831 317.216 283.462 305.231 283.462 290.269C283.462 275.307 270.831 263.322 255.43 263.322C240.03 263.322 227.398 275.307 227.398 290.269C227.398 305.231 240.03 317.216 255.43 317.216Z" fill="#D9D9D9" stroke="white" stroke-width="4"/>
<path d="M290.355 317.216C305.755 317.216 318.387 305.231 318.387 290.269C318.387 275.307 305.755 263.322 290.355 263.322C274.955 263.322 262.323 275.307 262.323 290.269C262.323 305.231 274.955 317.216 290.355 317.216Z" fill="#D9D9D9" stroke="white" stroke-width="4"/>
<path d="M323.113 317.216C338.513 317.216 351.144 305.231 351.144 290.269C351.144 275.307 338.513 263.322 323.113 263.322C307.712 263.322 295.081 275.307 295.081 290.269C295.081 305.231 307.712 317.216 323.113 317.216Z" fill="#181D21" stroke="white" stroke-width="4"/>
<ellipse cx="289.271" cy="267.817" rx="59.8728" ry="42.4099" fill="#181D21"/>
<ellipse cx="255.43" cy="290.269" rx="26.0317" ry="24.947" fill="#181D21"/>
<circle cx="67.873" cy="238.407" r="5" fill="#181D21"/>
<ellipse cx="290.355" cy="290.269" rx="26.0317" ry="24.947" fill="#181D21"/>
<path d="M104.662 312.227C121.56 312.227 136.944 307.378 148.154 299.437C159.36 291.5 166.535 280.349 166.535 267.817C166.535 255.284 159.36 244.134 148.154 236.196C136.944 228.255 121.56 223.407 104.662 223.407C87.7634 223.407 72.3801 228.255 61.1694 236.196C49.9635 244.134 42.7891 255.284 42.7891 267.817C42.7891 280.349 49.9635 291.5 61.1694 299.437C72.3801 307.378 87.7634 312.227 104.662 312.227Z" fill="#D9D9D9" stroke="white" stroke-width="4"/>
<path d="M70.8207 317.216C86.2211 317.216 98.8524 305.231 98.8524 290.269C98.8524 275.307 86.2211 263.322 70.8207 263.322C55.4203 263.322 42.7891 275.307 42.7891 290.269C42.7891 305.231 55.4203 317.216 70.8207 317.216Z" fill="#D9D9D9" stroke="white" stroke-width="4"/>
<path d="M105.746 317.216C121.146 317.216 133.777 305.231 133.777 290.269C133.777 275.307 121.146 263.322 105.746 263.322C90.3451 263.322 77.7139 275.307 77.7139 290.269C77.7139 305.231 90.3451 317.216 105.746 317.216Z" fill="#D9D9D9" stroke="white" stroke-width="4"/>
<path d="M138.503 317.216C153.904 317.216 166.535 305.231 166.535 290.269C166.535 275.307 153.904 263.322 138.503 263.322C123.103 263.322 110.472 275.307 110.472 290.269C110.472 305.231 123.103 317.216 138.503 317.216Z" fill="#181D21" stroke="white" stroke-width="4"/>
<ellipse cx="104.662" cy="267.817" rx="59.8728" ry="42.4099" fill="#181D21"/>
<ellipse cx="70.8207" cy="290.269" rx="26.0317" ry="24.947" fill="#181D21"/>
<ellipse cx="105.746" cy="290.269" rx="26.0317" ry="24.947" fill="#181D21"/>
<path d="M64.606 32.1656C64.6533 31.4298 65.4537 30.9965 66.0957 31.3591L151.607 79.6594C152.292 80.0461 152.283 81.0352 151.592 81.4095L59.7757 131.116C59.0842 131.491 58.2512 130.957 58.3017 130.173L64.606 32.1656Z" fill="#D9D9D9" stroke="white" stroke-width="8"/>
<path d="M322.522 31.3593C323.164 30.9967 323.964 31.43 324.012 32.1659L330.316 130.173C330.367 130.958 329.534 131.491 328.842 131.117L237.026 81.4097C236.335 81.0354 236.326 80.0463 237.011 79.6596L322.522 31.3593Z" fill="#D9D9D9" stroke="white" stroke-width="8"/>
<path d="M64.606 32.0408C64.6534 31.3069 65.4532 30.8756 66.0961 31.2372L151.601 79.3412C152.288 79.7275 152.281 80.7159 151.588 81.0893L59.779 130.594C59.0865 130.967 58.2515 130.433 58.3021 129.649L64.606 32.0408Z" fill="#181D21"/>
<path d="M322.522 31.2379C323.165 30.8762 323.964 31.3075 324.012 32.0414L330.316 129.65C330.366 130.434 329.531 130.968 328.839 130.595L237.03 81.0899C236.337 80.7166 236.33 79.7281 237.016 79.3418L322.522 31.2379Z" fill="#181D21"/>
<rect x="55.7119" y="129.281" width="112.105" height="16.7557" transform="rotate(-30.2589 55.7119 129.281)" fill="#181D21"/>
<path d="M227.958 87.2635L324.653 143.675L333.153 129.105L236.458 72.6943L227.958 87.2635Z" fill="#181D21"/>
<path d="M195.336 188.981C194.951 189.647 193.989 189.647 193.604 188.981L182.373 169.528C181.989 168.862 182.47 168.028 183.239 168.028L205.701 168.028C206.471 168.028 206.952 168.862 206.567 169.528L195.336 188.981Z" fill="#EB9792"/>
<circle cx="144.576" cy="145.576" r="22.947" fill="black" stroke="white" stroke-width="4"/>
<circle cx="244.364" cy="145.576" r="22.947" fill="black" stroke="white" stroke-width="4"/>
<path d="M164.305 132.643L169.294 142.622H150.672L164.305 132.643Z" fill="white"/>
<path d="M262.988 132.643L267.977 142.622H249.354L262.988 132.643Z" fill="white"/>
<path d="M332.79 128.113C335.592 134.406 335.307 141.767 332.79 142.888C330.273 144.009 325.775 137.328 322.973 131.034C320.172 124.741 320.46 107.483 322.977 106.362C325.494 105.241 329.988 121.82 332.79 128.113Z" fill="#D9D9D9"/>
<path d="M56.3055 127.923C53.5037 134.216 53.7885 141.577 56.3058 142.698C58.8232 143.818 63.3206 137.137 66.1224 130.844C68.9242 124.551 68.636 107.292 66.1186 106.172C63.6013 105.051 59.1073 121.629 56.3055 127.923Z" fill="#D9D9D9"/>
<path d="M354.13 195.47C354.13 280.893 290.132 70.735 201.954 70.735C113.775 70.735 34.8086 280.893 34.8086 195.47C34.8086 110.047 106.291 40.7986 194.47 40.7986C282.648 40.7986 354.13 110.047 354.13 195.47Z" fill="#181D21"/>
</svg>
